<?xml version="1.0" standalone="no"?>
<!DOCTYPE svg PUBLIC "-//W3C//DTD SVG 20010904//EN"
 "http://www.w3.org/TR/2001/REC-SVG-20010904/DTD/svg10.dtd">
<svg version="1.0" xmlns="http://www.w3.org/2000/svg"
 width="700.000000pt" height="700.000000pt" viewBox="0 0 700.000000 700.000000"
 preserveAspectRatio="xMidYMid meet">
<metadata>
Created by potrace 1.14, written by Peter Selinger 2001-2017
</metadata>
<g transform="translate(0.000000,700.000000) scale(0.100000,-0.100000)"
fill="#000000" stroke="none">
<path d="M3295 6409 c-764 -51 -1490 -414 -1993 -994 -358 -412 -586 -894
-677 -1429 -131 -772 54 -1564 514 -2196 783 -1079 2191 -1490 3430 -1003 665
261 1218 768 1539 1410 492 983 386 2170 -272 3047 -520 692 -1286 1108 -2151
1166 -167 11 -216 11 -390 -1z m492 -594 c542 -71 1004 -302 1384 -691 161
-165 278 -323 383 -517 264 -485 343 -1074 220 -1625 -128 -572 -492 -1100
-982 -1424 -538 -355 -1180 -473 -1809 -332 -438 98 -826 315 -1149 646 -165
168 -280 323 -389 523 -334 612 -366 1388 -85 2036 238 550 711 1010 1267
1233 184 74 369 122 578 150 140 19 437 19 582 1z"/>
<path d="M4297 4436 c-99 -28 -105 -35 -587 -708 -250 -351 -458 -640 -463
-644 -4 -5 -110 94 -235 218 -125 124 -243 234 -262 244 -27 14 -57 19 -125
19 -80 0 -95 -3 -135 -27 -136 -80 -192 -238 -131 -373 32 -73 721 -763 800
-802 105 -52 243 -28 324 55 20 20 288 390 596 821 403 566 563 797 573 830
40 141 -20 284 -145 345 -65 32 -146 40 -210 22z"/>
</g>
</svg>
